<?xml version="1.0" standalone="no"?>
<!DOCTYPE svg PUBLIC "-//W3C//DTD SVG 20010904//EN"
 "http://www.w3.org/TR/2001/REC-SVG-20010904/DTD/svg10.dtd">
<svg version="1.0" xmlns="http://www.w3.org/2000/svg"
 width="768.000000pt" height="768.000000pt" viewBox="0 0 768.000000 768.000000"
 preserveAspectRatio="xMidYMid meet">
<metadata>
Created by potrace 1.11, written by Peter Selinger 2001-2013
</metadata>
<g transform="translate(0.000000,768.000000) scale(0.100000,-0.100000)"
fill="#000000" stroke="none">
<path d="M1290 7654 c-153 -52 -262 -165 -310 -324 -20 -64 -20 -103 -20
-3015 0 -2109 3 -2961 11 -2985 70 -220 235 -357 441 -365 43 -2 81 -5 85 -8
4 -2 17 -1 28 3 11 4 32 4 48 -1 15 -4 27 -5 27 -1 0 4 16 7 35 7 19 0 35 -3
35 -7 0 -4 13 -3 29 2 15 4 34 4 42 0 7 -5 20 -5 28 -1 9 5 25 5 36 1 11 -4
31 -4 45 0 14 4 34 4 45 0 11 -4 29 -5 40 -3 11 2 30 3 43 3 23 0 44 0 65 1
15 0 75 0 102 -1 11 -1 27 -1 35 -1 62 3 143 1 150 -4 6 -4 10 -2 10 4 0 7 8
7 24 1 13 -5 27 -6 30 -2 4 3 7 -27 7 -68 -1 -41 -1 -84 0 -95 0 -24 0 -305 0
-320 -3 -193 -2 -458 2 -462 3 -2 165 156 361 351 l356 356 360 -360 c198
-198 361 -360 363 -360 1 0 0 29 -3 65 -3 36 -3 65 0 65 3 0 5 25 5 55 0 30
-2 55 -5 55 -3 0 -5 29 -5 65 0 36 2 65 5 65 6 0 2 197 -4 222 -2 10 -1 18 2
18 4 0 7 25 7 55 0 30 -2 55 -5 55 -3 0 -3 27 0 60 3 33 3 60 0 60 -3 0 -3 27
-2 59 3 53 6 59 28 64 13 2 27 1 30 -4 2 -5 15 -4 27 0 12 5 32 5 44 0 12 -4
25 -4 28 0 3 5 21 5 40 1 19 -4 35 -4 35 0 0 4 16 4 35 0 19 -4 35 -5 35 -1 0
7 63 6 76 -1 5 -3 18 -2 29 2 11 4 31 4 45 0 14 -4 34 -4 45 0 11 4 30 4 42
-1 13 -5 25 -4 28 2 4 5 11 6 17 3 10 -6 35 -6 126 -1 23 1 42 -1 42 -5 0 -4
13 -3 29 2 15 4 34 4 41 0 7 -5 23 -5 35 0 12 5 28 4 35 0 8 -5 18 -6 22 -3
12 7 92 8 103 1 6 -3 19 -2 30 2 11 4 31 4 45 0 14 -4 34 -4 45 0 11 4 30 4
42 -1 13 -5 25 -4 28 2 4 5 11 6 17 3 10 -6 35 -6 126 -1 23 1 42 -1 42 -5 0
-4 13 -3 29 2 15 4 34 4 41 0 7 -5 23 -5 35 0 12 5 28 4 35 0 8 -5 18 -6 22
-3 12 7 92 8 103 1 6 -3 19 -2 30 2 11 4 31 4 45 0 14 -4 34 -4 45 0 11 4 30
4 42 -1 13 -5 25 -4 28 2 4 5 11 6 17 3 10 -6 35 -6 126 -1 23 1 42 -1 42 -5
0 -4 13 -3 29 2 15 4 34 4 41 0 7 -5 23 -5 35 0 12 5 28 4 35 0 8 -5 18 -6 22
-3 12 7 92 8 103 1 6 -3 19 -2 30 2 11 4 32 4 47 -1 14 -4 29 -5 31 -3 3 3 22
6 43 8 112 9 220 64 304 153 33 35 60 70 60 78 0 8 4 15 9 15 4 0 19 28 32 63
l24 62 3 2972 c1 1677 -2 2982 -7 2995 -5 13 -14 41 -21 63 -18 55 -68 132
-121 183 -53 51 -164 108 -238 122 -35 7 -910 10 -2510 10 l-2456 -1 -75 -25z
m715 -454 c11 4 31 4 45 0 14 -4 34 -4 45 0 11 4 30 4 42 -1 12 -5 25 -4 28 0
3 5 20 5 39 1 19 -4 37 -6 39 -3 7 6 106 8 112 1 3 -3 23 -2 45 2 22 4 40 4
40 0 0 -5 12 -5 28 -1 15 4 41 4 58 1 18 -4 38 -4 45 1 7 4 16 6 19 4 7 -4 43
-6 132 -4 32 0 62 -2 68 -6 5 -3 10 -2 10 2 0 5 25 6 55 3 30 -3 60 -3 66 1 6
3 26 3 45 -1 19 -4 34 -5 34 -1 0 7 106 5 126 -3 8 -3 14 -2 14 2 0 7 72 7
202 1 32 -1 60 0 63 3 4 3 22 2 41 -2 18 -4 34 -5 34 -1 0 3 17 5 37 4 62 -3
105 -3 165 -2 32 0 62 -2 68 -6 5 -3 10 -3 10 2 0 8 187 9 196 1 2 -3 22 -2
44 2 22 4 40 4 40 -1 0 -4 13 -4 29 1 16 4 32 6 34 3 5 -4 42 -5 124 -1 24 1
45 -1 48 -4 3 -3 23 -2 45 2 22 4 40 4 40 0 0 -5 12 -5 28 -1 15 4 41 4 58 1
18 -4 38 -4 45 1 7 4 16 6 19 4 7 -4 43 -6 132 -4 32 0 62 -2 68 -6 5 -3 10
-2 10 2 0 5 25 6 55 3 30 -3 60 -3 66 1 6 3 26 3 45 -1 19 -4 34 -5 34 -1 0 7
106 5 126 -3 8 -3 14 -2 14 2 0 7 72 7 202 1 32 -1 60 0 63 3 4 3 22 2 41 -2
18 -4 34 -5 34 -1 0 3 17 5 37 4 62 -3 105 -3 165 -2 32 0 62 -2 68 -6 5 -3
10 -3 10 2 0 8 187 9 196 1 2 -3 22 -2 44 2 22 4 40 4 40 -1 0 -4 13 -4 29 1
16 4 32 6 34 3 3 -2 22 -4 43 -3 157 3 166 1 175 -33 4 -15 4 -27 -1 -27 -4 0
-4 -16 0 -35 4 -19 4 -35 0 -35 -7 0 -4 -54 5 -77 2 -7 0 -15 -6 -18 -5 -4 -6
-11 -3 -17 5 -8 6 -42 3 -140 0 -7 0 -22 0 -33 1 -35 2 -140 2 -152 -1 -7 -1
-19 -2 -25 0 -7 0 -22 1 -33 0 -11 0 -28 0 -37 0 -10 0 -25 0 -33 0 -8 0 -22
0 -30 0 -8 0 -21 1 -27 1 -23 0 -132 -2 -160 0 -7 0 -22 1 -33 0 -11 0 -28 0
-37 0 -10 0 -25 0 -33 0 -8 0 -23 0 -32 0 -10 0 -43 0 -73 -1 -30 -1 -59 -1
-65 0 -5 0 -19 1 -30 0 -11 0 -46 -1 -77 -1 -31 2 -61 5 -67 4 -5 2 -12 -3
-15 -6 -4 -6 -18 -1 -36 5 -17 5 -30 0 -30 -5 0 -5 -13 0 -30 5 -18 5 -32 -1
-36 -5 -3 -6 -10 -3 -16 5 -8 6 -42 3 -140 0 -7 0 -22 0 -33 1 -35 2 -140 2
-152 -1 -7 -1 -19 -2 -25 0 -7 0 -22 1 -33 0 -11 0 -28 0 -37 0 -10 0 -25 0
-33 0 -8 0 -22 0 -30 0 -8 0 -21 1 -27 1 -23 0 -132 -2 -160 0 -7 0 -22 1 -33
0 -11 0 -28 0 -37 0 -10 0 -25 0 -33 0 -8 0 -23 0 -32 0 -10 0 -43 0 -73 -1
-30 -1 -59 -1 -65 0 -5 0 -19 1 -30 0 -11 0 -46 -1 -77 -1 -31 2 -61 5 -67 4
-5 2 -12 -3 -15 -6 -4 -6 -18 -1 -36 5 -17 5 -30 0 -30 -5 0 -5 -13 0 -30 5
-18 5 -32 -1 -36 -5 -3 -6 -10 -3 -16 5 -8 6 -42 3 -140 0 -7 0 -22 0 -33 1
-35 2 -140 2 -152 -1 -7 -1 -19 -2 -25 0 -7 0 -22 1 -33 0 -11 0 -28 0 -37 0
-10 0 -25 0 -33 0 -8 0 -22 0 -30 0 -8 0 -21 1 -27 1 -23 0 -132 -2 -160 0 -7
0 -22 1 -33 0 -11 0 -28 0 -37 0 -10 0 -25 0 -33 0 -8 0 -23 0 -32 0 -10 0
-43 0 -73 -1 -30 -1 -59 -1 -65 0 -5 0 -19 1 -30 0 -11 0 -46 -1 -77 -1 -31 2
-61 5 -67 4 -5 2 -12 -3 -15 -6 -4 -6 -18 -1 -36 5 -17 5 -30 0 -30 -5 0 -5
-13 0 -30 5 -18 5 -32 -1 -36 -5 -3 -6 -10 -3 -16 4 -5 6 -36 5 -69 -1 -32 -1
-66 -1 -74 0 -8 0 -22 0 -30 1 -59 -2 -67 -26 -62 -14 2 -27 1 -29 -3 -3 -4
-19 -4 -37 -1 -18 4 -47 4 -65 0 -18 -4 -34 -4 -37 -1 -5 4 -86 6 -103 2 -5
-2 -12 -2 -17 -1 -13 3 -259 3 -271 1 -5 -1 -14 -2 -19 -1 -11 2 -128 3 -141
1 -8 -1 -163 0 -230 2 -5 0 -21 -1 -35 -1 -14 -1 -32 -1 -40 0 -8 0 -37 1 -65
0 -27 0 -57 -1 -65 0 -8 0 -42 0 -75 0 -33 0 -109 0 -170 0 -60 0 -114 0 -120
-1 -5 -2 -14 -2 -19 -1 -21 4 -136 4 -140 0 -3 -2 -37 -2 -76 1 -40 3 -74 2
-76 -2 -2 -3 -17 -3 -33 2 -16 4 -32 6 -34 3 -3 -2 -34 -4 -69 -3 -78 1 -79 1
-103 0 -11 -1 -44 0 -73 2 -28 2 -52 -1 -52 -5 0 -5 -4 -5 -10 -2 -9 5 -251
10 -275 5 -5 -1 -14 -2 -19 -1 -11 2 -128 3 -141 1 -8 -1 -163 0 -230 2 -5 0
-21 -1 -35 -1 -14 -1 -32 -1 -40 0 -8 0 -37 1 -65 0 -27 0 -57 -1 -65 0 -8 0
-42 0 -75 0 -33 0 -109 0 -170 0 -60 0 -114 0 -120 -1 -5 -2 -14 -2 -19 -1
-21 4 -136 4 -140 0 -3 -2 -37 -2 -76 1 -40 3 -74 2 -76 -2 -2 -3 -17 -3 -33
2 -16 4 -32 6 -34 3 -3 -2 -34 -4 -69 -3 -78 1 -79 1 -103 0 -11 -1 -44 0 -73
2 -28 2 -52 -1 -52 -5 0 -5 -5 -5 -10 -2 -6 4 -47 6 -92 6 -44 0 -78 2 -75 5
3 3 1 18 -3 34 -4 16 -6 31 -3 34 9 8 9 76 1 76 -4 0 -3 13 2 30 5 17 5 32 0
35 -5 3 -5 16 -1 28 5 12 5 32 0 44 -4 12 -4 25 0 27 5 3 5 20 2 38 -4 18 -4
48 0 66 4 17 3 34 -2 37 -4 3 -4 16 0 28 5 12 5 34 0 49 -4 16 -4 28 0 28 5 0
5 15 2 33 -4 17 -4 47 0 65 4 17 3 34 -2 37 -4 3 -4 16 0 28 5 12 5 33 1 47
-4 14 -4 34 0 45 4 11 4 27 -1 36 -4 8 -4 21 1 28 4 8 5 25 1 40 -4 14 -6 37
-4 51 2 14 3 35 3 48 0 26 0 47 1 65 0 6 0 26 0 42 -1 17 -1 37 0 45 0 8 0 24
-1 35 0 11 0 27 0 35 1 8 1 29 1 45 -1 17 -1 37 0 45 0 8 0 24 -1 35 0 11 0
27 0 35 1 8 1 29 1 45 -1 17 -1 37 0 45 0 8 0 24 -1 35 0 11 0 47 1 80 0 33 0
65 -1 70 -1 6 -1 15 0 20 2 10 2 37 -1 133 0 24 2 46 5 49 3 3 1 13 -4 22 -5
10 -5 23 0 31 4 7 4 24 0 36 -5 13 -5 26 -1 29 5 3 6 20 2 37 -4 18 -4 47 -1
63 4 17 3 37 -1 46 -4 8 -4 21 1 29 4 7 4 24 0 36 -5 13 -5 26 -1 29 5 3 6 20
2 37 -4 18 -4 47 -1 63 4 17 3 37 -1 46 -4 8 -4 21 1 29 4 7 4 24 0 36 -5 13
-5 26 -1 29 5 3 6 20 2 37 -4 18 -4 47 -1 65 4 17 4 37 -1 44 -4 7 -4 20 0 28
5 9 5 25 1 36 -4 11 -4 32 0 46 4 15 4 32 0 39 -5 7 -5 23 0 34 4 11 4 32 0
46 -4 14 -5 34 -3 45 2 11 3 30 3 43 0 23 0 44 1 65 0 6 0 26 0 42 -1 17 -1
37 0 45 0 8 0 24 -1 35 0 11 0 27 0 35 1 8 1 29 1 45 -1 17 -1 37 0 45 0 8 0
24 -1 35 0 11 0 27 0 35 1 8 1 29 1 45 -1 17 -1 37 0 45 0 8 0 24 -1 35 0 11
0 59 1 106 1 48 -1 91 -4 96 -3 5 -2 15 3 22 4 8 4 27 0 42 -5 16 -6 29 -2 29
4 0 7 16 7 35 0 19 -3 35 -7 35 -4 0 -3 12 1 28 5 15 5 36 1 47 -4 11 -5 24
-2 29 8 14 8 76 0 76 -4 0 -3 13 2 30 5 17 5 32 0 35 -5 3 -5 16 -1 28 5 12 5
32 0 44 -5 13 -4 25 2 28 5 4 7 10 4 15 -3 5 -6 40 -7 77 -1 64 0 68 23 74 13
3 29 3 34 -1 6 -4 19 -4 30 0z m-465 -4802 c0 8 94 7 115 -2 8 -3 17 -1 20 3
3 5 20 6 37 2 18 -4 44 -5 58 -4 14 2 35 3 48 3 12 0 28 0 35 0 6 -1 80 0 162
0 83 1 155 1 160 0 6 -1 33 -1 60 0 69 1 68 1 90 0 11 0 48 0 82 1 34 0 66 -2
72 -5 5 -4 12 -2 15 3 4 6 18 6 35 1 15 -4 34 -4 41 0 7 5 24 4 36 0 13 -5 26
-5 29 -1 3 5 20 6 37 2 18 -4 44 -5 58 -4 14 2 35 3 48 3 12 0 28 0 35 0 6 -1
80 0 162 0 83 1 155 1 160 0 6 -1 33 -1 60 0 69 1 68 1 90 0 11 0 48 0 82 1
34 0 66 -2 72 -5 5 -4 12 -2 15 3 4 6 18 6 35 1 15 -4 34 -4 41 0 7 5 24 4 36
0 13 -5 26 -5 29 -1 3 5 20 6 37 2 18 -4 44 -5 58 -4 14 2 35 3 48 3 12 0 28
0 35 0 6 -1 80 0 162 0 83 1 155 1 160 0 6 -1 33 -1 60 0 69 1 68 1 90 0 11 0
48 0 82 1 34 0 66 -2 72 -5 5 -4 12 -2 15 3 4 6 18 6 35 1 15 -4 34 -4 41 0 7
5 24 4 36 0 13 -5 26 -5 29 -1 3 5 20 6 37 2 18 -4 44 -5 58 -4 14 2 35 3 48
3 12 0 28 0 35 0 6 -1 80 0 162 0 83 1 155 0 160 -1 6 -1 14 -1 19 0 12 2 288
3 301 1 6 -1 33 -1 60 0 69 1 68 1 90 0 11 0 48 0 82 1 34 0 66 -2 72 -5 5 -4
12 -2 15 3 4 6 18 6 35 1 15 -4 34 -4 41 0 7 5 24 4 36 0 13 -5 26 -5 29 -1 3
5 20 6 37 2 18 -4 44 -5 58 -4 14 2 35 3 48 3 12 0 28 0 35 -1 6 0 48 1 92 1
44 1 85 1 90 0 6 -1 16 -3 24 -4 15 -1 35 -56 21 -56 -4 0 -4 -16 0 -35 4 -19
4 -37 0 -40 -8 -5 -5 -44 5 -72 2 -7 0 -15 -6 -18 -5 -4 -6 -11 -3 -17 5 -8 6
-42 3 -140 0 -7 0 -22 0 -33 1 -35 2 -140 2 -152 -1 -7 -1 -19 -2 -25 0 -7 0
-22 1 -33 0 -11 0 -28 0 -37 0 -10 0 -25 0 -33 0 -8 0 -21 0 -27 -1 -7 1 -34
2 -61 2 -26 0 -47 -3 -47 -4 0 -3 -16 1 -35 4 -19 5 -35 1 -35 -4 0 -6 -13 -3
-29 l4 -29 -139 -1 c-76 -1 -142 -2 -148 -2 -5 0 -75 0 -155 0 -80 0 -152 0
-160 0 -8 0 -80 0 -160 0 -80 0 -152 0 -160 0 -8 0 -80 0 -160 0 -80 0 -152 0
-160 0 -8 0 -80 0 -160 0 -80 0 -152 0 -160 0 -8 0 -80 0 -160 0 -80 0 -152 0
-160 0 -33 -1 -318 0 -360 2 -25 0 -70 2 -100 2 l-55 2 -3 35 c-1 19 -2 44 -2
55 0 11 0 38 -1 60 0 22 0 46 0 53 2 30 2 40 2 97 0 33 0 67 0 75 1 63 -5 99
-17 104 -7 3 -16 1 -19 -4 -3 -5 -18 -5 -33 -1 -15 5 -36 5 -47 1 -11 -4 -31
-4 -45 0 -14 4 -35 4 -46 0 -11 -5 -27 -5 -34 0 -7 4 -24 4 -39 0 -14 -4 -35
-4 -46 0 -11 4 -29 4 -41 0 -11 -5 -27 -5 -34 0 -7 4 -24 4 -39 0 -14 -4 -35
-4 -46 0 -11 4 -29 4 -41 0 -11 -5 -27 -5 -34 0 -7 4 -26 4 -42 0 -35 -10 -31
-10 -65 -1 -16 5 -37 5 -48 1 -11 -4 -29 -4 -41 0 -11 5 -27 5 -34 0 -7 -4
-25 -4 -40 0 -15 4 -33 4 -41 0 -7 -5 -20 -5 -28 -1 -9 4 -29 5 -46 1 -16 -3
-45 -3 -62 1 -18 4 -33 3 -33 -1 0 -5 -13 -5 -29 0 -15 4 -34 4 -42 0 -7 -5
-20 -5 -27 -1 -8 5 -29 5 -46 2 -17 -4 -44 -4 -61 -1 -16 3 -43 3 -60 0 -16
-3 -43 -3 -60 0 -16 3 -40 4 -52 2 -21 -4 -22 -9 -22 -96 0 -50 -2 -156 -3
-236 l-3 -145 -50 -2 c-61 -3 -141 -4 -215 -3 -31 1 -60 1 -65 0 -6 -2 -12 -2
-15 -1 -6 3 -241 3 -255 1 -8 -1 -88 0 -120 1 -5 1 -35 1 -65 0 -30 -1 -80 0
-110 1 -50 3 -55 5 -54 26 0 12 -3 22 -8 22 -5 0 -4 8 1 19 6 10 8 21 4 24 -3
4 -5 33 -4 64 1 32 2 63 2 68 0 6 0 19 -1 30 0 11 0 46 1 77 1 31 -2 61 -5 67
-4 5 -2 12 3 15 6 4 6 18 1 36 -5 17 -5 30 0 30 5 0 5 13 0 30 -5 18 -5 32 1
36 5 3 6 10 3 16 -5 8 -6 42 -3 141 0 6 0 21 -1 32 0 11 0 45 1 76 1 31 -1 61
-5 67 -3 6 -2 13 3 16 6 4 6 18 1 36 -8 26 -6 29 18 32 15 2 39 0 55 -4 15 -3
27 -4 27 0z"/>
<path d="M2412 6721 c-6 -3 -11 -31 -11 -61 -1 -30 -1 -68 -2 -85 -1 -16 -1
-37 0 -45 0 -8 0 -60 0 -115 0 -55 0 -111 1 -125 1 -14 2 -31 3 -37 0 -7 14
-13 31 -14 17 0 52 -1 79 -2 26 -1 47 2 47 6 0 5 4 5 10 2 12 -7 138 -10 145
-3 3 3 23 2 45 -2 22 -4 42 -5 45 -1 3 3 21 4 40 3 28 -3 34 0 37 20 2 13 1
35 -3 51 -4 15 -4 27 1 27 5 0 5 13 0 30 -5 17 -5 30 0 30 5 0 5 13 0 30 -5
17 -5 30 0 30 5 0 5 13 0 30 -5 17 -5 30 0 30 5 0 5 13 0 30 -5 17 -5 30 0 30
5 0 5 12 1 28 -5 15 -5 36 -1 47 4 11 4 25 0 30 -5 6 -9 15 -10 20 0 6 -10 10
-20 9 -11 0 -20 3 -20 7 0 4 -13 4 -30 -1 -17 -5 -30 -5 -30 0 0 5 -13 5 -30
0 -16 -5 -30 -6 -30 -2 0 8 -159 6 -167 -1 -2 -3 -18 -1 -34 3 -16 5 -31 5
-34 0 -3 -5 -15 -6 -29 0 -12 4 -28 5 -34 1z"/>
<path d="M2404 5759 c-4 -6 -5 -59 -3 -114 1 -16 1 -36 0 -42 -2 -25 -2 -39
-1 -138 1 -55 1 -104 0 -110 -6 -28 2 -72 13 -73 19 -1 50 -2 70 -2 9 0 33 1
52 1 19 0 42 0 50 0 8 0 31 0 50 0 19 0 42 0 50 -1 18 0 40 0 58 0 6 0 30 0
52 -1 82 -2 83 -2 87 36 2 19 1 35 -4 35 -4 0 -5 6 -3 13 8 20 11 127 3 127
-4 0 -3 14 2 30 5 17 6 30 2 30 -8 0 -8 62 0 76 3 5 2 18 -2 29 -4 11 -4 30 1
43 5 12 5 22 0 22 -5 0 -8 7 -7 17 1 18 -50 37 -60 22 -3 -5 -10 -7 -15 -3 -6
3 -32 6 -57 5 -26 -1 -54 -1 -62 -1 -8 0 -73 1 -143 2 -71 2 -131 0 -133 -3z"/>
<path d="M2406 4801 c-3 -4 -5 -32 -5 -62 -1 -30 -1 -67 -2 -84 -1 -16 -1 -36
0 -42 0 -7 0 -59 0 -115 0 -188 -3 -179 49 -178 41 1 214 1 305 1 31 0 62 -3
67 -6 6 -3 10 -2 10 3 0 5 11 7 24 5 24 -5 29 8 26 72 -1 11 -1 25 -1 30 0 6
1 34 2 63 1 29 -1 55 -4 58 -3 4 -2 14 3 23 5 10 5 23 0 30 -4 8 -4 27 0 42 5
18 5 29 -1 29 -6 0 -7 5 -4 10 8 13 9 82 1 106 -5 17 -15 19 -102 17 -52 -1
-101 -4 -108 -6 -7 -3 -18 -2 -25 3 -7 4 -28 4 -47 0 -19 -4 -50 -4 -69 0 -19
4 -37 4 -40 0 -3 -4 -21 -4 -40 0 -19 4 -37 5 -39 1z"/>
<path d="M2418 3843 c-14 -4 -18 -15 -19 -51 -1 -26 0 -51 1 -57 2 -5 2 -23 0
-40 -1 -16 -2 -36 -1 -42 0 -7 0 -59 0 -115 0 -136 1 -159 6 -168 6 -10 65
-19 65 -10 0 4 17 4 38 1 20 -4 46 -6 57 -5 11 2 32 3 48 3 15 1 39 1 55 2 15
0 38 1 52 3 14 1 36 -1 50 -5 14 -3 34 -3 45 1 11 4 30 4 42 -1 24 -9 24 -9
23 104 0 12 1 36 3 52 1 17 -1 42 -4 56 -4 15 -3 32 1 40 5 7 5 20 0 28 -4 8
-4 25 1 38 5 13 4 25 -2 28 -5 4 -7 11 -3 16 5 8 6 70 2 112 -1 12 -68 18 -68
6 0 -4 -16 -3 -35 1 -19 4 -35 4 -35 0 0 -4 -16 -4 -35 0 -19 4 -37 4 -40 -1
-3 -4 -16 -4 -29 1 -13 5 -26 7 -29 4 -8 -9 -61 -11 -82 -4 -11 4 -29 4 -40 0
-11 -4 -27 -4 -35 0 -8 3 -23 5 -32 3z"/>
</g>
</svg>
